# xmcd CD database file
#
# Track frame offsets:
#	150
#	17998
#	36531
#
# Disc length: 657 seconds
#
# Revision: 0
# Processed by: cddbd v1.5.2PL0 Copyright (c) Steve Scherf et al.
# Submitted via: CDex 1.51
#
DISCID=23028f03
DTITLE=Road Side - Downtown Nashville
DYEAR=2002
DGENRE=Country
TTITLE0=Downtown Nashville
TTITLE1=Thank God It's Fridday
TTITLE2=Pinewoods Of Kentucky
EXTD=YEAR: 2002
EXTT0=
EXTT1=
EXTT2=
PLAYORDER=
